# xmcd
#
# Track frame offsets:
#	150
#	6008
#	18559
#	20587
#	35757
#	55923
#	75368
#	93167
#	94400
#	112271
#	129451
#	145342
#	161979
#	166957
#	182713
#	201339
#	224943
#	243456
#	251909
#
# Disc length: 3622 seconds
# Revision: 0
# Processed by: cddbd v1.5.2PL0 Copyright (c) Steve Scherf et al.
# Submitted via: dBpowerAMP V12.0
#
DISCID=1b0e2413
DTITLE=Various Artist - Adrenaline Rush 2007
DYEAR=2007
DGENRE=Hip Hop
TTITLE0=Twista - Adrenaline Rush The Sage Continues...
TTITLE1=Twista - Charged
TTITLE2=Twista - What T Is? (Skit)
TTITLE3=Twista - I Ain't That Nigga
TTITLE4=Twista featuring Cee-Lo, Jazze Pha and Big Zak - Say Say
TTITLE5=Twista featuring Lil' Wayne - Whip Game Proper
TTITLE6=Twista featuring Speedknot Mobstaz - No Pistols
TTITLE7=Twista - Phone (Skit)
TTITLE8=Twista featuring R. Kelly - Love Rehab
TTITLE9=Twista - Seven Day Hustle
TTITLE10=Twista featuring T-Pain - Creep Fast
TTITLE11=Twista - Wrist Stay Rocky
TTITLE12=Twista - What Would Twista Do If He Wasn't Rappin'? (Skit)
TTITLE13=Twista featuring Pharrell - Give It Up
TTITLE14=Twista - The Come Up
TTITLE15=Twista featuring Bone Thugs-N-Harmony - Ain't No Hoes
TTITLE16=Twista - Pimp Like Me
TTITLE17=Twista - ya with it or ya ain't (Skit)
TTITLE18=Twista - Trouble
EXTD=
EXTT0=
EXTT1=
EXTT2=
EXTT3=
EXTT4=
EXTT5=
EXTT6=
EXTT7=
EXTT8=
EXTT9=
EXTT10=
EXTT11=
EXTT12=
EXTT13=
EXTT14=
EXTT15=
EXTT16=
EXTT17=
EXTT18=
PLAYORDER=
